<svg width="128" height="32" viewBox="0 0 128 32" fill="none" xmlns="http://www.w3.org/2000/svg">
<path d="M41.2103 23.9343H35.9886L34.7346 27.637H32.5229L37.4688 13.9381H39.7667L44.7125 27.637H42.4631L41.2103 23.9343ZM36.5294 22.2258H40.6684L38.628 16.2166H38.5709L36.5294 22.2258Z" fill="white"/>
<path d="M55.3939 22.6435C55.3939 25.7472 53.7328 27.7412 51.2259 27.7412C50.5909 27.7745 49.9593 27.6282 49.4035 27.3191C48.8478 27.0101 48.3903 26.5508 48.0834 25.9938H48.036V30.9408H45.9859V17.6491H47.9703V19.3103H48.008C48.329 18.756 48.7942 18.2991 49.3542 17.9882C49.9142 17.6773 50.548 17.524 51.1882 17.5446C53.723 17.5446 55.3939 19.5484 55.3939 22.6435ZM53.2868 22.6435C53.2868 20.6214 52.2418 19.292 50.6474 19.292C49.081 19.292 48.0274 20.6494 48.0274 22.6435C48.0274 24.6559 49.081 26.0036 50.6474 26.0036C52.2418 26.0036 53.2868 24.6839 53.2868 22.6435Z" fill="white"/>
<path d="M66.3867 22.6435C66.3867 25.7472 64.7255 27.7412 62.2186 27.7412C61.5836 27.7744 60.952 27.6282 60.3963 27.3191C59.8405 27.0101 59.383 26.5508 59.0761 25.9938H59.0287V30.9408H56.9786V17.6491H58.963V19.3103H59.0007C59.3217 18.756 59.7869 18.2991 60.3469 17.9882C60.9069 17.6773 61.5407 17.524 62.1809 17.5446C64.7158 17.5446 66.3867 19.5484 66.3867 22.6435ZM64.2795 22.6435C64.2795 20.6214 63.2345 19.292 61.6401 19.292C60.0737 19.292 59.0201 20.6494 59.0201 22.6435C59.0201 24.6559 60.0737 26.0036 61.6401 26.0036C63.2345 26.0036 64.2795 24.6839 64.2795 22.6435Z" fill="white"/>
<path d="M73.652 23.8199C73.8039 25.1783 75.1236 26.0703 76.9269 26.0703C78.6549 26.0703 79.8981 25.1783 79.8981 23.9534C79.8981 22.8901 79.1483 22.2535 77.3729 21.8171L75.5976 21.3894C73.0821 20.7819 71.9143 19.6054 71.9143 17.6965C71.9143 15.3329 73.9741 13.7094 76.8989 13.7094C79.7936 13.7094 81.778 15.3329 81.8448 17.6965H79.7753C79.6514 16.3294 78.5213 15.5042 76.8698 15.5042C75.2183 15.5042 74.0882 16.3391 74.0882 17.5543C74.0882 18.5228 74.81 19.0927 76.5757 19.5289L78.085 19.8995C80.8957 20.5642 82.0635 21.6932 82.0635 23.697C82.0635 26.2599 80.022 27.865 76.775 27.865C73.737 27.865 71.6859 26.2976 71.5533 23.8198L73.652 23.8199Z" fill="white"/>
<path d="M86.4879 15.2855V17.6491H88.3872V19.2726H86.4879V24.7787C86.4879 25.6341 86.8682 26.0327 87.7031 26.0327C87.9286 26.0287 88.1537 26.0129 88.3775 25.9852V27.599C88.0021 27.6691 87.6206 27.7009 87.2388 27.6938C85.2167 27.6938 84.4281 26.9343 84.4281 24.9973V19.2726H82.976V17.6491H84.4281V15.2855H86.4879Z" fill="white"/>
<path d="M89.4872 22.6435C89.4872 19.501 91.338 17.5263 94.224 17.5263C97.1198 17.5263 98.962 19.501 98.962 22.6435C98.962 25.7946 97.1295 27.7606 94.224 27.7606C91.3196 27.7606 89.4872 25.7946 89.4872 22.6435ZM96.8731 22.6435C96.8731 20.4878 95.8852 19.2155 94.224 19.2155C92.5628 19.2155 91.576 20.4975 91.576 22.6435C91.576 24.8078 92.5628 26.0704 94.224 26.0704C95.8852 26.0704 96.8731 24.8078 96.8731 22.6435Z" fill="white"/>
<path d="M100.652 17.6491H102.608V19.3491H102.655C102.787 18.8182 103.098 18.349 103.536 18.0203C103.973 17.6917 104.511 17.5237 105.057 17.5446C105.294 17.5438 105.529 17.5695 105.76 17.6211V19.5387C105.461 19.4476 105.15 19.4057 104.839 19.4148C104.541 19.4027 104.244 19.4552 103.968 19.5687C103.693 19.6822 103.445 19.854 103.242 20.0723C103.039 20.2907 102.886 20.5503 102.792 20.8334C102.699 21.1166 102.669 21.4165 102.702 21.7127V27.6367H100.652L100.652 17.6491Z" fill="white"/>
<path d="M115.212 24.7033C114.936 26.5163 113.17 27.7606 110.911 27.7606C108.006 27.7606 106.202 25.8139 106.202 22.6909C106.202 19.5581 108.016 17.5263 110.825 17.5263C113.588 17.5263 115.326 19.4245 115.326 22.4528V23.1552H108.272V23.2791C108.239 23.6466 108.285 24.0169 108.407 24.3654C108.528 24.7138 108.723 25.0323 108.977 25.2999C109.231 25.5675 109.539 25.7779 109.881 25.9173C110.223 26.0566 110.59 26.1216 110.959 26.1081C111.443 26.1534 111.929 26.0412 112.345 25.7881C112.76 25.535 113.083 25.1545 113.265 24.7033L115.212 24.7033ZM108.282 21.7224H113.275C113.293 21.3919 113.243 21.0611 113.128 20.7509C113.012 20.4407 112.834 20.1577 112.604 19.9197C112.374 19.6817 112.097 19.4938 111.791 19.3678C111.485 19.2418 111.156 19.1804 110.825 19.1875C110.491 19.1855 110.16 19.2497 109.851 19.3762C109.542 19.5028 109.262 19.6893 109.025 19.925C108.789 20.1607 108.601 20.4408 108.474 20.7493C108.346 21.0578 108.281 21.3885 108.282 21.7224Z" fill="white"/>
<path d="M35.3775 4.31411H36.363C36.5327 4.33523 36.7048 4.32098 36.8687 4.27226C37.0326 4.22354 37.1846 4.14141 37.3151 4.03103C37.4457 3.92065 37.552 3.78442 37.6273 3.63094C37.7025 3.47745 37.7452 3.31003 37.7526 3.13923C37.7526 2.45952 37.2412 2.02045 36.3739 2.02045C36.2001 1.99616 36.0232 2.00695 35.8536 2.05216C35.684 2.09738 35.5252 2.17612 35.3866 2.28372C35.2479 2.39133 35.1323 2.52562 35.0464 2.67867C34.9605 2.83171 34.9062 3.00042 34.8866 3.17482H33.8046C33.8232 2.85824 33.9068 2.54888 34.0501 2.26601C34.1935 1.98314 34.3936 1.73281 34.6379 1.5306C34.8821 1.3284 35.1655 1.17865 35.4701 1.09068C35.7748 1.00271 36.0943 0.978399 36.4088 1.01927C37.8599 1.01927 38.8817 1.83166 38.8817 3.00111C38.8851 3.39289 38.754 3.77398 38.5103 4.08077C38.2666 4.38756 37.9251 4.60148 37.5427 4.68684V4.77368C37.996 4.79379 38.423 4.99255 38.7301 5.32652C39.0373 5.66049 39.1998 6.10249 39.182 6.5559C39.1485 6.88185 39.0502 7.19783 38.8929 7.48531C38.7357 7.7728 38.5226 8.026 38.2663 8.23007C38.0099 8.43414 37.7154 8.58499 37.3999 8.67376C37.0845 8.76253 36.7545 8.78744 36.4294 8.74703C36.1035 8.79146 35.772 8.76982 35.4547 8.68341C35.1374 8.597 34.8407 8.44758 34.5824 8.24406C34.3241 8.04054 34.1094 7.7871 33.9511 7.49883C33.7928 7.21056 33.6941 6.89336 33.6611 6.56616H34.7599C34.8263 7.27121 35.474 7.726 36.4294 7.726C37.3847 7.726 38.0083 7.21517 38.0083 6.49504C38.0083 5.76466 37.4209 5.31473 36.3944 5.31473H35.3775V4.31411Z" fill="white"/>
<path d="M40.4304 6.99556C40.4304 5.99438 41.1771 5.4172 42.4991 5.33517L44.0057 5.24833V4.76825C44.0057 4.1808 43.6185 3.84909 42.867 3.84909C42.2543 3.84909 41.8309 4.07406 41.7078 4.46729H40.6451C40.7573 3.51195 41.6572 2.89918 42.9189 2.89918C44.3133 2.89918 45.0998 3.59336 45.0998 4.76825V8.5685H44.0419V7.78686H43.9551C43.7788 8.06724 43.5313 8.29581 43.2377 8.44923C42.9442 8.60266 42.6153 8.67544 42.2844 8.66014C42.0509 8.68443 41.8149 8.65952 41.5917 8.58701C41.3684 8.51451 41.1628 8.39602 40.9881 8.23919C40.8134 8.08236 40.6736 7.89066 40.5775 7.67646C40.4815 7.46226 40.4314 7.23031 40.4304 6.99556ZM44.0057 6.5203V6.0553L42.6475 6.14215C41.8815 6.19341 41.5341 6.45396 41.5341 6.94429C41.5341 7.44487 41.9683 7.73618 42.5655 7.73618C42.7404 7.7539 42.9172 7.73624 43.0852 7.68425C43.2532 7.63227 43.409 7.54702 43.5434 7.43357C43.6777 7.32013 43.7879 7.18082 43.8674 7.02392C43.9468 6.86703 43.9938 6.69575 44.0057 6.5203Z" fill="white"/>
<path d="M48.0128 3.93052V8.5685H46.9152V3.00654H50.5774V3.93046L48.0128 3.93052Z" fill="white"/>
<path d="M57.2297 5.78513C57.2297 7.55227 56.3359 8.66021 54.9318 8.66021C54.5872 8.68375 54.243 8.60832 53.9397 8.44281C53.6365 8.2773 53.3868 8.02859 53.2202 7.72597H53.1333V10.4177H52.0357V3.00656H53.0923V3.92575H53.1744C53.344 3.61256 53.5969 3.35235 53.9051 3.17387C54.2133 2.99538 54.5649 2.90555 54.921 2.91432C56.3359 2.91428 57.2297 4.01738 57.2297 5.78513ZM56.1007 5.78513C56.1007 4.61026 55.5446 3.90038 54.6146 3.90038C53.6907 3.90038 53.1128 4.62533 53.1128 5.78996C53.1128 6.94916 53.6906 7.67471 54.6098 7.67471C55.5446 7.6747 56.1007 6.96482 56.1007 5.78513Z" fill="white"/>
<path d="M58.6917 10.5606V9.61552C58.8105 9.63062 58.9302 9.63747 59.0499 9.63603C59.2838 9.65335 59.5158 9.5837 59.7014 9.44045C59.8871 9.29719 60.0133 9.09042 60.0559 8.85981L60.1379 8.58901L58.1247 3.00654H59.3201L60.7146 7.42439H60.8014L62.191 3.00654H63.355L61.2815 8.7983C60.8062 10.1517 60.2803 10.5859 59.1465 10.5859C59.0548 10.5859 58.7942 10.5757 58.6917 10.5606Z" fill="white"/>
<path d="M64.2102 6.99016H65.3031C65.4104 7.48053 65.87 7.73621 66.5129 7.73621C67.2439 7.73621 67.6926 7.41415 67.6926 6.91357C67.6926 6.3774 67.2898 6.12168 66.5129 6.12168H65.6806V5.26887H66.4985C67.1619 5.26887 67.4996 5.01376 67.4996 4.54876C67.4996 4.14044 67.1727 3.82864 66.4985 3.82864C65.8845 3.82864 65.4358 4.08919 65.3646 4.52827H64.3067C64.3858 4.02374 64.6597 3.57041 65.0696 3.26577C65.4795 2.96112 65.9925 2.82951 66.4985 2.89924C67.8205 2.89924 68.5768 3.49693 68.5768 4.43659C68.583 4.69826 68.4991 4.95411 68.3393 5.16138C68.1795 5.36864 67.9533 5.51476 67.6987 5.57528V5.66213C68.0018 5.70124 68.2801 5.85027 68.4807 6.08096C68.6812 6.31165 68.7901 6.60793 68.7867 6.9136C68.7867 7.97092 67.8868 8.67048 66.5129 8.67048C65.2982 8.67044 64.3116 8.11377 64.2102 6.99016Z" fill="white"/>
<path d="M70.3675 8.5685V3.00654H71.4555V6.83214H71.5424L74.1056 3.00655H75.1936V8.56852H74.1056V4.72244H74.0236L71.4555 8.56853L70.3675 8.5685Z" fill="white"/>
<path d="M81.1874 3.9305H79.4359V8.56848H78.337V3.9305H76.5855V3.00658H81.1874V3.9305Z" fill="white"/>
<path d="M87.1004 7.06673C86.9508 7.57503 86.6274 8.01463 86.1867 8.30875C85.746 8.60286 85.2159 8.73279 84.6891 8.67584C84.3227 8.68552 83.9585 8.61533 83.622 8.47016C83.2854 8.32499 82.9844 8.10831 82.7399 7.83516C82.4955 7.56202 82.3134 7.23894 82.2063 6.88837C82.0992 6.53779 82.0697 6.16811 82.1199 5.80499C82.0711 5.44075 82.1011 5.07028 82.2079 4.71866C82.3147 4.36703 82.4959 4.04247 82.739 3.76693C82.9822 3.49139 83.2817 3.27132 83.6173 3.1216C83.953 2.97189 84.3168 2.89603 84.6843 2.89916C86.2319 2.89916 87.1667 3.95649 87.1667 5.70304V6.08607H83.2393V6.14759C83.2219 6.35174 83.2474 6.55727 83.3141 6.75098C83.3809 6.94468 83.4875 7.12227 83.627 7.27234C83.7665 7.4224 83.9359 7.54162 84.1242 7.62233C84.3125 7.70304 84.5156 7.74345 84.7205 7.74098C84.9829 7.77235 85.2487 7.725 85.4841 7.60493C85.7195 7.48487 85.9139 7.29751 86.0425 7.06669L87.1004 7.06673ZM83.2392 5.27426H86.0473C86.0612 5.08768 86.0359 4.90027 85.973 4.72405C85.9102 4.54783 85.8112 4.38671 85.6824 4.25102C85.5536 4.11534 85.3978 4.00809 85.2251 3.93617C85.0524 3.86425 84.8665 3.82925 84.6795 3.83341C84.4896 3.83083 84.3011 3.86634 84.1251 3.93784C83.9492 4.00934 83.7894 4.11539 83.6551 4.24971C83.5208 4.38403 83.4149 4.5439 83.3434 4.71988C83.272 4.89585 83.2365 5.08436 83.2392 5.27426Z" fill="white"/>
<path d="M91.7541 3.00654H94.2618C95.3499 3.00654 95.988 3.55779 95.988 4.42083C95.9897 4.69468 95.8972 4.9608 95.7262 5.17467C95.5551 5.38854 95.3158 5.53717 95.0483 5.5957V5.68255C95.3731 5.70307 95.6777 5.84757 95.899 6.08619C96.1203 6.32482 96.2416 6.63934 96.2377 6.96479C96.2377 7.9352 95.5079 8.56848 94.2872 8.56848H91.7541V3.00654ZM92.8421 3.8491V5.28933H93.9301C94.5936 5.28933 94.9108 5.03421 94.9108 4.56378C94.9108 4.13014 94.6346 3.84909 94.052 3.84909L92.8421 3.8491ZM92.8421 6.09632V7.72596H94.1437C94.7926 7.72596 95.14 7.43948 95.14 6.91356C95.14 6.35689 94.7468 6.09634 94.0061 6.09634L92.8421 6.09632Z" fill="white"/>
<path d="M19.4788 14.9237C19.4462 11.3784 22.4439 9.6536 22.581 9.5733C20.8833 7.15 18.2518 6.8189 17.3271 6.7925C15.117 6.5648 12.9731 8.0872 11.8473 8.0872C10.699 8.0872 8.96528 6.8145 7.09674 6.8519C4.69224 6.8882 2.4428 8.2511 1.2091 10.3675C-1.33697 14.6828 0.561906 21.0243 3.00123 24.5124C4.22146 26.2207 5.6473 28.1281 7.51359 28.061C9.33943 27.9873 10.0215 26.9214 12.2248 26.9214C14.408 26.9214 15.0484 28.061 16.9518 28.0181C18.9113 27.9873 20.1451 26.3021 21.3226 24.5784C22.7327 22.6204 23.299 20.6921 23.3215 20.5931C23.2754 20.5777 19.5158 19.173 19.4788 14.9237Z" fill="white"/>
<path d="M15.8833 4.4979C16.8653 3.2956 17.5372 1.6599 17.3507 0C15.9293 0.0616 14.1518 0.9625 13.1282 2.1384C12.2226 3.1746 11.4136 4.873 11.6226 6.4702C13.2192 6.5868 14.8585 5.6815 15.8833 4.4979Z" fill="white"/>
</svg>
