<svg width="100" height="32" viewBox="0 0 100 32" fill="none" xmlns="http://www.w3.org/2000/svg">
<rect x="0.5" y="0.5" width="99" height="31" rx="3.5" fill="white"/>
<rect x="0.5" y="0.5" width="99" height="31" rx="3.5" stroke="#DFE0E5"/>
<path d="M26.6799 16.4677C26.6628 14.6148 28.2296 13.7133 28.3012 13.6713C27.4139 12.4048 26.0386 12.2318 25.5553 12.218C24.4002 12.099 23.2798 12.8947 22.6914 12.8947C22.0912 12.8947 21.1851 12.2295 20.2085 12.249C18.9519 12.268 17.7762 12.9803 17.1314 14.0864C15.8008 16.3418 16.7932 19.6561 18.0681 21.4791C18.7058 22.3719 19.451 23.3688 20.4264 23.3337C21.3807 23.2952 21.7371 22.7381 22.8887 22.7381C24.0297 22.7381 24.3644 23.3337 25.3592 23.3113C26.3833 23.2952 27.0281 22.4145 27.6435 21.5136C28.3805 20.4903 28.6765 19.4825 28.6882 19.4307C28.6641 19.4227 26.6992 18.6885 26.6799 16.4677Z" fill="#727281"/>
<path d="M24.8007 11.0187C25.314 10.3904 25.6651 9.5355 25.5676 8.66797C24.8248 8.70016 23.8958 9.17101 23.3608 9.78558C22.8875 10.3271 22.4647 11.2148 22.5739 12.0495C23.4084 12.1105 24.2652 11.6373 24.8007 11.0187Z" fill="#727281"/>
<path d="M34.6465 20L37.7051 11.8379H38.4023L41.4609 20H40.3184L39.5625 17.9375H36.4102L35.6543 20H34.6465ZM36.7559 17H39.2285L38.0039 13.6309L36.7559 17ZM43.3184 15.2129C43.6738 14.4746 44.3145 14.1055 45.2402 14.1055C46.0566 14.1055 46.7031 14.3789 47.1797 14.9258C47.6602 15.4727 47.9004 16.1797 47.9004 17.0469C47.9004 17.6172 47.7969 18.1328 47.5898 18.5938C47.3828 19.0508 47.0762 19.416 46.6699 19.6895C46.2637 19.959 45.791 20.0938 45.252 20.0938C44.377 20.0938 43.748 19.7695 43.3652 19.1211V22.4023H42.4043V14.2051H43.3184V15.2129ZM45.082 19.0859C45.6875 19.0859 46.1465 18.9004 46.459 18.5293C46.7715 18.1582 46.9277 17.6641 46.9277 17.0469C46.9277 16.4375 46.7715 15.9629 46.459 15.623C46.1465 15.2832 45.6836 15.1133 45.0703 15.1133C44.1992 15.1133 43.6309 15.3789 43.3652 15.9102V18.3184C43.6191 18.8301 44.1914 19.0859 45.082 19.0859ZM50.0801 15.2129C50.4355 14.4746 51.0762 14.1055 52.002 14.1055C52.8184 14.1055 53.4648 14.3789 53.9414 14.9258C54.4219 15.4727 54.6621 16.1797 54.6621 17.0469C54.6621 17.6172 54.5586 18.1328 54.3516 18.5938C54.1445 19.0508 53.8379 19.416 53.4316 19.6895C53.0254 19.959 52.5527 20.0938 52.0137 20.0938C51.1387 20.0938 50.5098 19.7695 50.127 19.1211V22.4023H49.166V14.2051H50.0801V15.2129ZM51.8438 19.0859C52.4492 19.0859 52.9082 18.9004 53.2207 18.5293C53.5332 18.1582 53.6895 17.6641 53.6895 17.0469C53.6895 16.4375 53.5332 15.9629 53.2207 15.623C52.9082 15.2832 52.4453 15.1133 51.832 15.1133C50.9609 15.1133 50.3926 15.3789 50.127 15.9102V18.3184C50.3809 18.8301 50.9531 19.0859 51.8438 19.0859ZM61.4238 20.1582C60.623 20.1582 59.9648 19.9395 59.4492 19.502C58.9336 19.0605 58.6406 18.4258 58.5703 17.5977H59.5195C59.5859 18.0625 59.7812 18.4199 60.1055 18.6699C60.4297 18.916 60.8691 19.0391 61.4238 19.0391C61.9863 19.0391 62.4297 18.9316 62.7539 18.7168C63.082 18.498 63.2461 18.1895 63.2461 17.791C63.2461 17.3652 63.0996 17.0449 62.8066 16.8301C62.5176 16.6152 62.041 16.4277 61.377 16.2676C60.9941 16.1738 60.668 16.0742 60.3984 15.9688C60.1289 15.8594 59.875 15.7188 59.6367 15.5469C59.3984 15.3711 59.2188 15.1523 59.0977 14.8906C58.9766 14.6289 58.916 14.3203 58.916 13.9648C58.916 13.2852 59.1465 12.7363 59.6074 12.3184C60.0684 11.8965 60.6777 11.6855 61.4355 11.6855C62.2012 11.6855 62.8125 11.9004 63.2695 12.3301C63.7266 12.7559 63.9922 13.377 64.0664 14.1934H63.1406C63.0625 13.7168 62.8828 13.3613 62.6016 13.127C62.3242 12.8926 61.9355 12.7754 61.4355 12.7754C60.9473 12.7754 60.5684 12.8828 60.2988 13.0977C60.0332 13.3086 59.9004 13.5977 59.9004 13.9648C59.9004 14.1367 59.9355 14.293 60.0059 14.4336C60.0762 14.5703 60.166 14.6875 60.2754 14.7852C60.3848 14.8789 60.5293 14.9688 60.709 15.0547C60.8926 15.1367 61.0684 15.2051 61.2363 15.2598C61.4082 15.3145 61.6152 15.3711 61.8574 15.4297C62.1699 15.5078 62.4395 15.5879 62.666 15.6699C62.8926 15.752 63.1094 15.8574 63.3164 15.9863C63.5234 16.1113 63.6895 16.2559 63.8145 16.4199C63.9434 16.5801 64.0449 16.7754 64.1191 17.0059C64.1934 17.2363 64.2305 17.498 64.2305 17.791C64.2305 18.4902 63.9707 19.0605 63.4512 19.502C62.9355 19.9395 62.2598 20.1582 61.4238 20.1582ZM67.4355 20.0703C67.1465 20.0703 66.9004 20.043 66.6973 19.9883C66.498 19.9297 66.3184 19.8281 66.1582 19.6836C66.002 19.5391 65.8848 19.334 65.8066 19.0684C65.7324 18.8027 65.6953 18.4727 65.6953 18.0781V15.1426H64.9395V14.2051H65.7188L66.0586 12.7871H66.6328V14.2051H68.1328V15.1426H66.6328V18.0312C66.6328 18.4375 66.709 18.7168 66.8613 18.8691C67.0176 19.0215 67.2539 19.0977 67.5703 19.0977C67.8555 19.0977 68.1035 19.0703 68.3145 19.0156V19.9414C68.0488 20.0273 67.7559 20.0703 67.4355 20.0703ZM70.3535 14.5039C70.7871 14.2383 71.2793 14.1055 71.8301 14.1055C72.3809 14.1055 72.8711 14.2383 73.3008 14.5039C73.7344 14.7656 74.0664 15.123 74.2969 15.5762C74.5312 16.0293 74.6484 16.5352 74.6484 17.0938C74.6484 17.9492 74.3867 18.6641 73.8633 19.2383C73.3398 19.8086 72.6621 20.0938 71.8301 20.0938C70.998 20.0938 70.3203 19.8086 69.7969 19.2383C69.2734 18.6641 69.0117 17.9492 69.0117 17.0938C69.0117 16.5352 69.127 16.0293 69.3574 15.5762C69.5918 15.123 69.9238 14.7656 70.3535 14.5039ZM73.166 15.6816C72.8301 15.3223 72.3848 15.1426 71.8301 15.1426C71.2754 15.1426 70.8281 15.3223 70.4883 15.6816C70.1523 16.0371 69.9844 16.5078 69.9844 17.0938C69.9844 17.6797 70.1523 18.1543 70.4883 18.5176C70.8281 18.8809 71.2754 19.0625 71.8301 19.0625C72.3848 19.0625 72.8301 18.8809 73.166 18.5176C73.5059 18.1543 73.6758 17.6797 73.6758 17.0938C73.6758 16.5078 73.5059 16.0371 73.166 15.6816ZM78.9727 14.1465V15.2246C78.8477 15.1934 78.6836 15.1777 78.4805 15.1777C77.6875 15.1777 77.1426 15.4219 76.8457 15.9102V20H75.8848V14.2051H76.7754V15.2598C77.127 14.5176 77.791 14.1465 78.7676 14.1465H78.9727ZM84.7559 18.2363C84.7012 18.4395 84.6289 18.6289 84.5391 18.8047C84.4531 18.9766 84.3379 19.1445 84.1934 19.3086C84.0488 19.4688 83.8848 19.6055 83.7012 19.7188C83.5215 19.832 83.3027 19.9238 83.0449 19.9941C82.7871 20.0605 82.5059 20.0938 82.2012 20.0938C81.6738 20.0938 81.2012 19.9609 80.7832 19.6953C80.3691 19.4258 80.0488 19.0645 79.8223 18.6113C79.5996 18.1543 79.4883 17.6484 79.4883 17.0938C79.4883 16.2461 79.7402 15.5371 80.2441 14.9668C80.752 14.3926 81.4043 14.1055 82.2012 14.1055C83.0137 14.1055 83.6641 14.3926 84.1523 14.9668C84.6406 15.541 84.8848 16.2793 84.8848 17.1816V17.3223H80.4609C80.4961 17.8652 80.6699 18.2988 80.9824 18.623C81.2949 18.9473 81.7012 19.1094 82.2012 19.1094C83.0332 19.1094 83.5918 18.8184 83.877 18.2363H84.7559ZM82.2012 15.0898C81.7207 15.0898 81.332 15.2266 81.0352 15.5C80.7422 15.7695 80.5586 16.1465 80.4844 16.6309H83.8887C83.8262 16.1699 83.6543 15.7988 83.373 15.5176C83.0957 15.2324 82.7051 15.0898 82.2012 15.0898Z" fill="#727281"/>
</svg>
