<svg width="100" height="32" viewBox="0 0 100 32" fill="none" xmlns="http://www.w3.org/2000/svg">
<rect x="0.5" y="0.5" width="99" height="31" rx="3.5" fill="white"/>
<rect x="0.5" y="0.5" width="99" height="31" rx="3.5" stroke="#DFE0E5"/>
<path d="M12.6684 11.8808L16.3466 15.5714C16.596 15.822 16.596 16.2277 16.3466 16.4777L12.6637 20.2334L12.6684 11.8808ZM13.9398 10.0742L18.0607 12.4487L19.523 13.2912L18.1502 14.6688C17.9008 14.9187 17.4963 14.9187 17.2469 14.6688L12.826 10.2347C13.0897 9.96263 13.5658 9.85285 13.9398 10.0742ZM13.4781 22.0579C13.2305 22.0579 13.0103 21.9475 12.8522 21.7882L17.2469 17.3804C17.4963 17.1304 17.9008 17.1304 18.1502 17.3804L19.5033 18.7383L13.9213 21.9391C13.7883 22.0167 13.635 22.0579 13.4781 22.0579ZM22.8611 16.7724L20.6488 18.0808L19.0505 16.4777C18.8011 16.2277 18.8011 15.822 19.0505 15.5714L20.6667 13.9504L22.8682 15.2469L22.8826 15.2546C23.1612 15.4062 23.3336 15.6943 23.3336 16.0076C23.3336 16.3232 23.1588 16.6125 22.8611 16.7724ZM23.5555 14.1425L14.5812 8.97105C14.2477 8.77297 13.8659 8.66797 13.4781 8.66797C12.4793 8.66797 11.6047 9.34871 11.4024 10.2693C11.3803 10.3576 11.329 10.5867 11.3338 10.8045L11.3344 21.2208C11.3416 21.432 11.3988 21.7178 11.4078 21.7524C11.6572 22.6843 12.5085 23.3346 13.4781 23.3346C13.8605 23.3346 14.2358 23.2332 14.5585 23.0447L23.5364 17.8965C24.2333 17.5224 24.6664 16.8011 24.6664 16.0135C24.6664 15.2344 24.241 14.5178 23.5555 14.1425Z" fill="#727281"/>
<path d="M34.0664 11.6973C34.9609 11.6973 35.6797 11.9355 36.2227 12.4121C36.7656 12.8887 37.1113 13.541 37.2598 14.3691H36.3223C36.1816 13.8652 35.9121 13.4844 35.5137 13.2266C35.1191 12.9648 34.6367 12.834 34.0664 12.834C33.332 12.834 32.7324 13.1055 32.2676 13.6484C31.8027 14.1914 31.5703 14.9492 31.5703 15.9219C31.5703 16.8945 31.8027 17.6523 32.2676 18.1953C32.7363 18.7344 33.3398 19.0039 34.0781 19.0039C34.7773 19.0039 35.3125 18.832 35.6836 18.4883C36.0586 18.1406 36.2969 17.6328 36.3984 16.9648H34.6172V16.0625H37.418V20H36.7676L36.5859 18.4883C36.4258 19.0078 36.1172 19.4141 35.6602 19.707C35.207 20 34.6797 20.1465 34.0781 20.1465C33.3594 20.1465 32.7324 19.9648 32.1973 19.6016C31.6621 19.2344 31.2559 18.7324 30.9785 18.0957C30.7012 17.459 30.5625 16.7344 30.5625 15.9219C30.5625 15.1094 30.7012 14.3848 30.9785 13.748C31.2559 13.1113 31.6602 12.6113 32.1914 12.248C32.7266 11.8809 33.3516 11.6973 34.0664 11.6973ZM39.9434 14.5039C40.377 14.2383 40.8691 14.1055 41.4199 14.1055C41.9707 14.1055 42.4609 14.2383 42.8906 14.5039C43.3242 14.7656 43.6562 15.123 43.8867 15.5762C44.1211 16.0293 44.2383 16.5352 44.2383 17.0938C44.2383 17.9492 43.9766 18.6641 43.4531 19.2383C42.9297 19.8086 42.252 20.0938 41.4199 20.0938C40.5879 20.0938 39.9102 19.8086 39.3867 19.2383C38.8633 18.6641 38.6016 17.9492 38.6016 17.0938C38.6016 16.5352 38.7168 16.0293 38.9473 15.5762C39.1816 15.123 39.5137 14.7656 39.9434 14.5039ZM42.7559 15.6816C42.4199 15.3223 41.9746 15.1426 41.4199 15.1426C40.8652 15.1426 40.418 15.3223 40.0781 15.6816C39.7422 16.0371 39.5742 16.5078 39.5742 17.0938C39.5742 17.6797 39.7422 18.1543 40.0781 18.5176C40.418 18.8809 40.8652 19.0625 41.4199 19.0625C41.9746 19.0625 42.4199 18.8809 42.7559 18.5176C43.0957 18.1543 43.2656 17.6797 43.2656 17.0938C43.2656 16.5078 43.0957 16.0371 42.7559 15.6816ZM46.4473 14.5039C46.8809 14.2383 47.373 14.1055 47.9238 14.1055C48.4746 14.1055 48.9648 14.2383 49.3945 14.5039C49.8281 14.7656 50.1602 15.123 50.3906 15.5762C50.625 16.0293 50.7422 16.5352 50.7422 17.0938C50.7422 17.9492 50.4805 18.6641 49.957 19.2383C49.4336 19.8086 48.7559 20.0938 47.9238 20.0938C47.0918 20.0938 46.4141 19.8086 45.8906 19.2383C45.3672 18.6641 45.1055 17.9492 45.1055 17.0938C45.1055 16.5352 45.2207 16.0293 45.4512 15.5762C45.6855 15.123 46.0176 14.7656 46.4473 14.5039ZM49.2598 15.6816C48.9238 15.3223 48.4785 15.1426 47.9238 15.1426C47.3691 15.1426 46.9219 15.3223 46.582 15.6816C46.2461 16.0371 46.0781 16.5078 46.0781 17.0938C46.0781 17.6797 46.2461 18.1543 46.582 18.5176C46.9219 18.8809 47.3691 19.0625 47.9238 19.0625C48.4785 19.0625 48.9238 18.8809 49.2598 18.5176C49.5996 18.1543 49.7695 17.6797 49.7695 17.0938C49.7695 16.5078 49.5996 16.0371 49.2598 15.6816ZM54.2344 19.9648C53.4297 19.9648 52.7949 19.6914 52.3301 19.1445C51.8652 18.5977 51.6328 17.8984 51.6328 17.0469C51.6328 16.4922 51.7344 15.9941 51.9375 15.5527C52.1406 15.1113 52.4414 14.7598 52.8398 14.498C53.2422 14.2363 53.7109 14.1055 54.2461 14.1055C54.6914 14.1055 55.0723 14.2031 55.3887 14.3984C55.7051 14.5938 55.9238 14.8574 56.0449 15.1895V14.2051H56.959V19.6016C56.959 20.1367 56.8926 20.5957 56.7598 20.9785C56.6309 21.3613 56.4434 21.6602 56.1973 21.875C55.9551 22.0898 55.6816 22.2441 55.377 22.3379C55.0723 22.4355 54.7246 22.4844 54.334 22.4844C53.623 22.4844 53.0547 22.3086 52.6289 21.957C52.207 21.6094 51.959 21.1367 51.8848 20.5391H52.793C52.8945 20.8633 53.0645 21.1094 53.3027 21.2773C53.5449 21.4492 53.8887 21.5352 54.334 21.5352C54.541 21.5352 54.7227 21.5195 54.8789 21.4883C55.0391 21.457 55.1914 21.3984 55.3359 21.3125C55.4805 21.2305 55.5996 21.1191 55.6934 20.9785C55.7871 20.8418 55.8613 20.6602 55.916 20.4336C55.9707 20.2109 55.998 19.9473 55.998 19.6426V18.9922C55.7949 19.332 55.5566 19.5801 55.2832 19.7363C55.0098 19.8887 54.6602 19.9648 54.2344 19.9648ZM54.3926 18.9805C54.8184 18.9805 55.1582 18.918 55.4121 18.793C55.666 18.668 55.8613 18.4668 55.998 18.1895V15.8867C55.7324 15.3555 55.2012 15.0898 54.4043 15.0898C53.7988 15.0898 53.3438 15.2676 53.0391 15.623C52.7344 15.9785 52.582 16.4531 52.582 17.0469C52.582 17.6406 52.7324 18.1113 53.0332 18.459C53.334 18.8066 53.7871 18.9805 54.3926 18.9805ZM59.4668 11.8379V20H58.5059V11.8379H59.4668ZM65.9707 18.2363C65.916 18.4395 65.8438 18.6289 65.7539 18.8047C65.668 18.9766 65.5527 19.1445 65.4082 19.3086C65.2637 19.4688 65.0996 19.6055 64.916 19.7188C64.7363 19.832 64.5176 19.9238 64.2598 19.9941C64.002 20.0605 63.7207 20.0938 63.416 20.0938C62.8887 20.0938 62.416 19.9609 61.998 19.6953C61.584 19.4258 61.2637 19.0645 61.0371 18.6113C60.8145 18.1543 60.7031 17.6484 60.7031 17.0938C60.7031 16.2461 60.9551 15.5371 61.459 14.9668C61.9668 14.3926 62.6191 14.1055 63.416 14.1055C64.2285 14.1055 64.8789 14.3926 65.3672 14.9668C65.8555 15.541 66.0996 16.2793 66.0996 17.1816V17.3223H61.6758C61.7109 17.8652 61.8848 18.2988 62.1973 18.623C62.5098 18.9473 62.916 19.1094 63.416 19.1094C64.248 19.1094 64.8066 18.8184 65.0918 18.2363H65.9707ZM63.416 15.0898C62.9355 15.0898 62.5469 15.2266 62.25 15.5C61.957 15.7695 61.7734 16.1465 61.6992 16.6309H65.1035C65.041 16.1699 64.8691 15.7988 64.5879 15.5176C64.3105 15.2324 63.9199 15.0898 63.416 15.0898ZM70.3652 20V11.8379H72.709C73.627 11.8379 74.3242 12.0684 74.8008 12.5293C75.2773 12.9902 75.5156 13.6133 75.5156 14.3984C75.5156 15.1758 75.2793 15.7812 74.8066 16.2148C74.334 16.6484 73.6348 16.8652 72.709 16.8652H71.373V20H70.3652ZM72.6387 12.957H71.373V15.9102H72.6387C73.2246 15.9102 73.6816 15.7812 74.0098 15.5234C74.3418 15.2656 74.5078 14.8906 74.5078 14.3984C74.5078 13.9102 74.3438 13.5488 74.0156 13.3145C73.6914 13.0762 73.2324 12.957 72.6387 12.957ZM77.7129 11.8379V20H76.752V11.8379H77.7129ZM83.3379 20.0234C83.0566 20.0234 82.8281 19.9434 82.6523 19.7832C82.4805 19.623 82.3809 19.3867 82.3535 19.0742C81.9551 19.7227 81.3926 20.0469 80.666 20.0469C80.1465 20.0469 79.7344 19.9121 79.4297 19.6426C79.125 19.373 78.9727 18.9844 78.9727 18.4766C78.9727 18.0117 79.0977 17.6484 79.3477 17.3867C79.6016 17.125 80.0117 16.8848 80.5781 16.666L82.2949 15.9922C82.2324 15.3984 81.8438 15.1016 81.1289 15.1016C80.793 15.1016 80.5195 15.1699 80.3086 15.3066C80.0977 15.4434 79.9688 15.6484 79.9219 15.9219H79.0195C79.1016 15.3242 79.3398 14.873 79.7344 14.5684C80.1289 14.2598 80.5938 14.1055 81.1289 14.1055C81.7969 14.1055 82.3164 14.2812 82.6875 14.6328C83.0625 14.9844 83.248 15.5098 83.2441 16.209L83.2207 18.4297C83.2207 18.6602 83.25 18.8203 83.3086 18.9102C83.3711 18.9961 83.4766 19.0391 83.625 19.0391H83.8535V20C83.6426 20.0156 83.4707 20.0234 83.3379 20.0234ZM79.9336 18.3066C79.9336 18.8184 80.2734 19.0742 80.9531 19.0742C81.2383 19.0742 81.4961 19.0332 81.7266 18.9512C81.957 18.8652 82.1387 18.75 82.2715 18.6055L82.2949 16.7246L81.2285 17.1582C80.7441 17.3535 80.4062 17.5312 80.2148 17.6914C80.0273 17.8477 79.9336 18.0527 79.9336 18.3066ZM86.1035 20.6211L86.3203 20H86.0918L84.0879 14.2051H85.1191L86.7012 18.8867L88.3125 14.2051H89.2207L86.8711 20.9258C86.6758 21.4805 86.4492 21.875 86.1914 22.1094C85.9336 22.3438 85.6152 22.4609 85.2363 22.4609C85.0137 22.4609 84.791 22.4277 84.5684 22.3613V21.3828C84.7793 21.4297 84.9668 21.4531 85.1309 21.4531C85.3691 21.4531 85.5645 21.3887 85.7168 21.2598C85.873 21.1309 86.002 20.918 86.1035 20.6211Z" fill="#727281"/>
</svg>
