<svg width="129" height="32" viewBox="0 0 129 32" fill="none" xmlns="http://www.w3.org/2000/svg">
<path d="M0.52035 0.825842C0.190748 1.16409 0 1.69072 0 2.37272V26.6992C0 27.3812 0.190748 27.9078 0.52035 28.2461L0.601699 28.3203L14.5067 14.6941V14.3723L0.601699 0.746094L0.52035 0.825842Z" fill="url(#paint0_linear_3052_4916)"/>
<path d="M19.1367 19.2347L14.5068 14.6903V14.3686L19.1423 9.82422L19.2461 9.88335L24.7357 12.9455C26.3024 13.8145 26.3024 15.2445 24.7357 16.119L19.2461 19.1756L19.1367 19.2347Z" fill="url(#paint1_linear_3052_4916)"/>
<path d="M19.2461 19.1774L14.5069 14.5312L0.520508 28.2441C1.04086 28.7804 1.88941 28.845 2.85437 28.3087L19.2461 19.1774Z" fill="url(#paint2_linear_3052_4916)"/>
<path d="M19.2461 9.88474L2.85437 0.753373C1.88941 0.222624 1.04086 0.287247 0.520508 0.823496L14.5069 14.5309L19.2461 9.88474Z" fill="url(#paint3_linear_3052_4916)"/>
<path d="M38.6085 26.5175C39.7626 26.5175 40.7619 26.2897 41.6062 25.8341C42.4566 25.3785 43.1157 24.7407 43.5834 23.9206C44.0512 23.0945 44.285 22.1226 44.285 21.0049V19.3922H38.8819V21.0414H42.2623V21.333C42.2562 22.0011 42.1013 22.5904 41.7976 23.1006C41.4938 23.6048 41.0686 23.9996 40.5219 24.2851C39.9813 24.5645 39.3526 24.7042 38.6358 24.7042C37.8097 24.7042 37.096 24.4977 36.4946 24.0847C35.8933 23.6716 35.4286 23.0854 35.1006 22.3261C34.7786 21.5607 34.6176 20.6557 34.6176 19.6109V19.5926C34.6176 18.5661 34.7786 17.6762 35.1006 16.923C35.4286 16.1637 35.8872 15.5775 36.4764 15.1644C37.0717 14.7514 37.7763 14.5448 38.5903 14.5448C39.4893 14.5448 40.2425 14.7544 40.85 15.1735C41.4574 15.5927 41.8796 16.191 42.1165 16.9685L42.1438 17.0596H44.1939L44.1757 16.9685C44.0178 16.1242 43.6867 15.3861 43.1825 14.7544C42.6783 14.1166 42.0345 13.6215 41.2509 13.2692C40.4733 12.9108 39.5865 12.7316 38.5903 12.7316C37.3633 12.7316 36.2942 13.0141 35.383 13.579C34.4719 14.1439 33.7672 14.9427 33.2691 15.9754C32.771 17.0019 32.522 18.2138 32.522 19.6109V19.6291C32.522 21.0323 32.771 22.2502 33.2691 23.2828C33.7672 24.3155 34.4688 25.1143 35.3739 25.6792C36.2851 26.238 37.3633 26.5175 38.6085 26.5175Z" fill="white"/>
<path d="M49.8897 26.3899C50.8616 26.3899 51.6938 26.1834 52.3863 25.7703C53.0849 25.3572 53.6225 24.768 53.9991 24.0027C54.3757 23.2373 54.564 22.3231 54.564 21.2601V21.2418C54.564 20.1849 54.3757 19.2737 53.9991 18.5084C53.6225 17.743 53.0849 17.1538 52.3863 16.7407C51.6878 16.3277 50.8556 16.1211 49.8897 16.1211C48.93 16.1211 48.1008 16.3277 47.4023 16.7407C46.7037 17.1538 46.1631 17.743 45.7804 18.5084C45.4038 19.2737 45.2155 20.1849 45.2155 21.2418V21.2601C45.2155 22.3231 45.4038 23.2373 45.7804 24.0027C46.1631 24.768 46.7037 25.3572 47.4023 25.7703C48.1008 26.1834 48.93 26.3899 49.8897 26.3899ZM49.8897 24.7316C49.3309 24.7316 48.8541 24.5949 48.4592 24.3216C48.0644 24.0482 47.7607 23.6534 47.5481 23.1371C47.3415 22.6207 47.2383 21.9981 47.2383 21.2692V21.251C47.2383 20.516 47.3415 19.8903 47.5481 19.374C47.7607 18.8576 48.0644 18.4628 48.4592 18.1895C48.8541 17.9161 49.3309 17.7794 49.8897 17.7794C50.4547 17.7794 50.9315 17.9161 51.3203 18.1895C51.7151 18.4628 52.0158 18.8576 52.2223 19.374C52.4349 19.8903 52.5412 20.516 52.5412 21.251V21.2692C52.5412 21.992 52.4379 22.6147 52.2314 23.1371C52.0249 23.6534 51.7242 24.0482 51.3294 24.3216C50.9345 24.5949 50.4547 24.7316 49.8897 24.7316Z" fill="white"/>
<path d="M59.9591 26.3899C60.931 26.3899 61.7632 26.1834 62.4557 25.7703C63.1543 25.3572 63.6918 24.768 64.0685 24.0027C64.4451 23.2373 64.6334 22.3231 64.6334 21.2601V21.2418C64.6334 20.1849 64.4451 19.2737 64.0685 18.5084C63.6918 17.743 63.1543 17.1538 62.4557 16.7407C61.7571 16.3277 60.925 16.1211 59.9591 16.1211C58.9994 16.1211 58.1702 16.3277 57.4717 16.7407C56.7731 17.1538 56.2325 17.743 55.8498 18.5084C55.4732 19.2737 55.2849 20.1849 55.2849 21.2418V21.2601C55.2849 22.3231 55.4732 23.2373 55.8498 24.0027C56.2325 24.768 56.7731 25.3572 57.4717 25.7703C58.1702 26.1834 58.9994 26.3899 59.9591 26.3899ZM59.9591 24.7316C59.4003 24.7316 58.9234 24.5949 58.5286 24.3216C58.1338 24.0482 57.8301 23.6534 57.6175 23.1371C57.4109 22.6207 57.3077 21.9981 57.3077 21.2692V21.251C57.3077 20.516 57.4109 19.8903 57.6175 19.374C57.8301 18.8576 58.1338 18.4628 58.5286 18.1895C58.9234 17.9161 59.4003 17.7794 59.9591 17.7794C60.524 17.7794 61.0009 17.9161 61.3896 18.1895C61.7845 18.4628 62.0852 18.8576 62.2917 19.374C62.5043 19.8903 62.6106 20.516 62.6106 21.251V21.2692C62.6106 21.992 62.5073 22.6147 62.3008 23.1371C62.0943 23.6534 61.7936 24.0482 61.3988 24.3216C61.0039 24.5949 60.524 24.7316 59.9591 24.7316Z" fill="white"/>
<path d="M70.0285 29.6792C70.9701 29.6792 71.781 29.5273 72.4613 29.2236C73.1477 28.9259 73.6762 28.5007 74.0467 27.948C74.4233 27.3952 74.6116 26.7452 74.6116 25.9981V16.3125H72.6344V17.9435H72.5251C72.3307 17.5668 72.0847 17.2449 71.7871 16.9776C71.4894 16.7104 71.1462 16.5038 70.7575 16.358C70.3748 16.2123 69.9526 16.1394 69.4909 16.1394C68.6345 16.1394 67.8964 16.3459 67.2768 16.7589C66.6633 17.172 66.1865 17.74 65.8463 18.4628C65.5122 19.1857 65.3452 20.0179 65.3452 20.9594V20.9776C65.3452 21.9131 65.5122 22.7392 65.8463 23.456C66.1804 24.1667 66.6542 24.7255 67.2677 25.1325C67.8812 25.5334 68.6071 25.7339 69.4454 25.7339C69.901 25.7339 70.3231 25.6701 70.7119 25.5425C71.1007 25.4149 71.4469 25.2266 71.7506 24.9776C72.0543 24.7225 72.3034 24.4187 72.4978 24.0664H72.6435V25.9799C72.6435 26.6541 72.4158 27.1735 71.9602 27.5379C71.5046 27.9085 70.8698 28.0938 70.0559 28.0938C69.3937 28.0938 68.8653 27.9844 68.4704 27.7657C68.0756 27.5531 67.8357 27.2767 67.7506 26.9366L67.7415 26.9092H65.737L65.7279 26.9366C65.8129 27.4833 66.0346 27.9632 66.393 28.3762C66.7514 28.7893 67.2373 29.1082 67.8509 29.3329C68.4644 29.5638 69.1903 29.6792 70.0285 29.6792ZM70.0012 24.1029C69.4423 24.1029 68.9655 23.9723 68.5707 23.7111C68.1819 23.4438 67.8843 23.0763 67.6777 22.6086C67.4773 22.1348 67.3771 21.5911 67.3771 20.9776V20.9594C67.3771 20.3459 67.4773 19.8022 67.6777 19.3284C67.8843 18.8546 68.1819 18.4871 68.5707 18.2259C68.9655 17.9586 69.4423 17.825 70.0012 17.825C70.554 17.825 71.0308 17.9586 71.4317 18.2259C71.8326 18.4871 72.1394 18.8546 72.352 19.3284C72.5707 19.8022 72.68 20.3459 72.68 20.9594V20.9776C72.68 21.5911 72.5707 22.1348 72.352 22.6086C72.1394 23.0763 71.8326 23.4438 71.4317 23.7111C71.0369 23.9723 70.56 24.1029 70.0012 24.1029Z" fill="white"/>
<path d="M76.3895 26.1985H78.3667V12.4492H76.3895V26.1985Z" fill="white"/>
<path d="M84.3086 26.3899C84.9403 26.3899 85.4991 26.3079 85.9851 26.1439C86.4771 25.9799 86.8962 25.7642 87.2425 25.497C87.5948 25.2297 87.8773 24.9351 88.0899 24.6131C88.3025 24.2851 88.4483 23.9541 88.5272 23.62L88.5546 23.538L86.6411 23.5471L86.6047 23.62C86.5318 23.7901 86.3951 23.9632 86.1947 24.1393C86.0003 24.3155 85.7482 24.4643 85.4384 24.5858C85.1347 24.7012 84.7702 24.7589 84.345 24.7589C83.7983 24.7589 83.3215 24.6374 82.9145 24.3945C82.5136 24.1515 82.2038 23.7992 81.9851 23.3375C81.7664 22.8759 81.6571 22.3231 81.6571 21.6792V20.8865C81.6571 20.2062 81.7664 19.6352 81.9851 19.1735C82.2099 18.7058 82.5136 18.3535 82.8963 18.1166C83.285 17.8736 83.7254 17.7521 84.2174 17.7521C84.7095 17.7521 85.1408 17.8675 85.5113 18.0983C85.8879 18.3231 86.1825 18.6693 86.3951 19.1371C86.6138 19.5987 86.7231 20.1819 86.7231 20.8865V21.6701L87.6707 20.3671H80.6639V21.7794H88.6548V21.0869C88.6548 20.0968 88.4756 19.2312 88.1172 18.4901C87.7588 17.743 87.2455 17.1629 86.5773 16.7498C85.9152 16.3307 85.1225 16.1211 84.1992 16.1211C83.282 16.1211 82.4832 16.3368 81.8029 16.7681C81.1225 17.1993 80.5941 17.8007 80.2175 18.5722C79.8469 19.3436 79.6617 20.2456 79.6617 21.2783V21.2874C79.6617 22.3261 79.8469 23.2282 80.2175 23.9935C80.5941 24.7589 81.1286 25.3512 81.8211 25.7703C82.5136 26.1834 83.3427 26.3899 84.3086 26.3899Z" fill="white"/>
<path d="M95.0351 21.7065H99.1262C99.9887 21.7065 100.745 21.5273 101.395 21.169C102.051 20.8045 102.564 20.2973 102.935 19.6473C103.305 18.9913 103.491 18.235 103.491 17.3785V17.3603C103.491 16.5038 103.305 15.7536 102.935 15.1098C102.564 14.4598 102.051 13.9556 101.395 13.5972C100.745 13.2328 99.9887 13.0505 99.1262 13.0505H95.0351V14.7726H98.6159C99.5028 14.7726 100.189 15.0004 100.675 15.456C101.167 15.9116 101.413 16.5524 101.413 17.3785V17.3968C101.413 18.2107 101.167 18.8485 100.675 19.3102C100.189 19.7658 99.5028 19.9936 98.6159 19.9936H95.0351V21.7065ZM94.0146 26.1985H96.0556V13.0505H94.0146V26.1985Z" fill="white"/>
<path d="M104.84 26.1985H106.817V12.4492H104.84V26.1985Z" fill="white"/>
<path d="M111.32 26.3626C111.763 26.3626 112.17 26.3018 112.541 26.1803C112.911 26.0588 113.242 25.8796 113.534 25.6427C113.825 25.4058 114.065 25.1203 114.254 24.7862H114.399V26.1985H116.367V19.4378C116.367 18.7453 116.216 18.153 115.912 17.661C115.614 17.1629 115.174 16.7832 114.591 16.522C114.014 16.2548 113.309 16.1211 112.477 16.1211C111.73 16.1211 111.065 16.2366 110.481 16.4674C109.904 16.6921 109.44 17.008 109.087 17.415C108.735 17.822 108.519 18.2958 108.44 18.8364L108.431 18.9093H110.336L110.345 18.8728C110.466 18.5205 110.7 18.2472 111.046 18.0528C111.393 17.8584 111.842 17.7612 112.395 17.7612C113.057 17.7612 113.555 17.907 113.889 18.1986C114.229 18.4841 114.399 18.9002 114.399 19.4469V22.5448C114.399 22.97 114.29 23.3527 114.071 23.6929C113.853 24.027 113.552 24.2942 113.169 24.4947C112.787 24.6891 112.349 24.7862 111.857 24.7862C111.323 24.7862 110.882 24.6587 110.536 24.4036C110.196 24.1484 110.026 23.7931 110.026 23.3375V23.3193C110.026 22.8759 110.184 22.5327 110.5 22.2897C110.822 22.0406 111.323 21.8979 112.003 21.8614L115.383 21.6428V20.2487L111.739 20.4674C110.56 20.5342 109.649 20.8197 109.005 21.3238C108.368 21.828 108.049 22.5205 108.049 23.4013V23.4195C108.049 24.0148 108.188 24.5342 108.468 24.9776C108.753 25.421 109.142 25.7642 109.634 26.0072C110.132 26.2441 110.694 26.3626 111.32 26.3626Z" fill="white"/>
<path d="M118.665 29.6609C119.339 29.6609 119.907 29.5668 120.369 29.3785C120.836 29.1963 121.237 28.8804 121.571 28.4309C121.911 27.9814 122.224 27.3648 122.51 26.5812L126.182 16.3125H124.095L121.316 25.2054L121.918 24.2122H121.17L121.781 25.2054L118.993 16.3125H116.851L120.441 26.2077L120.287 26.7179C120.141 27.216 119.925 27.5714 119.64 27.784C119.36 27.9966 118.99 28.1029 118.528 28.1029C118.413 28.1029 118.294 28.0998 118.173 28.0938C118.057 28.0877 117.954 28.0755 117.863 28.0573V29.6154C117.99 29.6336 118.124 29.6458 118.264 29.6518C118.41 29.6579 118.543 29.6609 118.665 29.6609Z" fill="white"/>
<path d="M36.2049 3.88601H37.1769C37.3442 3.90684 37.5141 3.89279 37.6757 3.84474C37.8373 3.79668 37.9872 3.71567 38.116 3.6068C38.2448 3.49793 38.3496 3.36356 38.4239 3.21217C38.4981 3.06078 38.5402 2.89565 38.5475 2.72719C38.5475 2.05676 38.043 1.62369 37.1876 1.62369C37.0162 1.59974 36.8417 1.61037 36.6744 1.65497C36.5072 1.69957 36.3505 1.77723 36.2138 1.88337C36.0771 1.9895 35.963 2.12196 35.8783 2.27292C35.7936 2.42387 35.74 2.59027 35.7206 2.76229H34.6534C34.6718 2.45003 34.7542 2.14491 34.8956 1.8659C35.037 1.58689 35.2343 1.33998 35.4753 1.14054C35.7163 0.941099 35.9957 0.793394 36.2962 0.706625C36.5967 0.619857 36.9119 0.595881 37.2221 0.63619C38.6533 0.63619 39.6611 1.43748 39.6611 2.59095C39.6645 2.97738 39.5352 3.35326 39.2949 3.65586C39.0545 3.95845 38.7176 4.16946 38.3405 4.25364V4.3393C38.7876 4.35913 39.2087 4.55518 39.5117 4.88458C39.8147 5.21399 39.9749 5.64995 39.9574 6.09716C39.9243 6.41867 39.8273 6.73033 39.6722 7.01388C39.5171 7.29744 39.307 7.54717 39.0541 7.74846C38.8013 7.94975 38.5108 8.09853 38.1996 8.18609C37.8885 8.27364 37.5631 8.29822 37.2423 8.25836C36.9209 8.30218 36.594 8.28084 36.281 8.1956C35.968 8.11037 35.6754 7.963 35.4206 7.76226C35.1658 7.56152 34.954 7.31154 34.7979 7.02721C34.6418 6.74288 34.5445 6.43002 34.5119 6.10729H35.5957C35.6612 6.8027 36.3001 7.25128 37.2423 7.25128C38.1846 7.25128 38.7997 6.74742 38.7997 6.03714C38.7997 5.31674 38.2203 4.87296 37.2078 4.87296H36.2049V3.88601Z" fill="white"/>
<path d="M41.1888 6.53084C41.1888 5.54334 41.9252 4.97404 43.2292 4.89314L44.7152 4.80748V4.33396C44.7152 3.75454 44.3333 3.42736 43.5921 3.42736C42.9877 3.42736 42.5701 3.64925 42.4487 4.03712H41.4005C41.5112 3.09483 42.3987 2.49043 43.6432 2.49043C45.0186 2.49043 45.7943 3.17513 45.7943 4.33396V8.08228H44.7509V7.31132H44.6652C44.4914 7.58787 44.2472 7.81332 43.9577 7.96464C43.6682 8.11597 43.3437 8.18775 43.0174 8.17267C42.7871 8.19662 42.5543 8.17205 42.3341 8.10054C42.1139 8.02903 41.9111 7.91216 41.7388 7.75747C41.5665 7.60278 41.4286 7.41371 41.3338 7.20243C41.2391 6.99116 41.1897 6.76238 41.1888 6.53084ZM44.7152 6.06207V5.60342L43.3755 5.68908C42.62 5.73964 42.2773 5.99663 42.2773 6.48026C42.2773 6.97401 42.7056 7.26133 43.2946 7.26133C43.4672 7.27881 43.6415 7.26139 43.8072 7.21012C43.9729 7.15884 44.1266 7.07475 44.2591 6.96286C44.3917 6.85097 44.5004 6.71356 44.5787 6.55881C44.6571 6.40406 44.7035 6.23512 44.7152 6.06207Z" fill="white"/>
<path d="M48.6676 3.50767V8.08227H47.5849V2.59631H51.197V3.5076L48.6676 3.50767Z" fill="white"/>
<path d="M57.7585 5.33694C57.7585 7.07992 56.8769 8.17272 55.492 8.17272C55.152 8.19594 54.8125 8.12155 54.5134 7.9583C54.2143 7.79505 53.9681 7.54974 53.8037 7.25125H53.7181V9.90619H52.6354V2.59634H53.6776V3.50297H53.7585C53.9258 3.19406 54.1753 2.9374 54.4793 2.76135C54.7833 2.5853 55.1301 2.49671 55.4813 2.50535C56.8768 2.50532 57.7585 3.59334 57.7585 5.33694ZM56.6449 5.33694C56.6449 4.17812 56.0964 3.47794 55.1791 3.47794C54.2678 3.47794 53.6978 4.19298 53.6978 5.3417C53.6978 6.48506 54.2677 7.20069 55.1743 7.20069C56.0964 7.20068 56.6449 6.50051 56.6449 5.33694Z" fill="white"/>
<path d="M59.2005 10.0472V9.11498C59.3176 9.12987 59.4357 9.13663 59.5538 9.13521C59.7844 9.15229 60.0133 9.0836 60.1964 8.9423C60.3795 8.801 60.504 8.59706 60.546 8.3696L60.6269 8.10249L58.6412 2.59631H59.8203L61.1957 6.95379H61.2813L62.6519 2.59631H63.8001L61.7549 8.30893C61.2861 9.64383 60.7674 10.0721 59.649 10.0721C59.5586 10.0721 59.3016 10.062 59.2005 10.0472Z" fill="white"/>
<path d="M64.6436 6.5255H65.7215C65.8274 7.00917 66.2807 7.26136 66.9148 7.26136C67.6358 7.26136 68.0784 6.9437 68.0784 6.44996C68.0784 5.92112 67.681 5.66889 66.9148 5.66889H66.0939V4.82774H66.9005C67.5549 4.82774 67.888 4.57611 67.888 4.11746C67.888 3.71473 67.5656 3.40719 66.9005 3.40719C66.295 3.40719 65.8524 3.66418 65.7821 4.09725H64.7388C64.8168 3.59962 65.087 3.15248 65.4912 2.852C65.8955 2.55152 66.4015 2.42171 66.9005 2.49048C68.2045 2.49048 68.9505 3.08001 68.9505 4.00683C68.9566 4.26492 68.8739 4.51728 68.7162 4.72171C68.5586 4.92615 68.3355 5.07026 68.0843 5.12996V5.21562C68.3834 5.25419 68.6578 5.40119 68.8557 5.62873C69.0535 5.85627 69.1609 6.1485 69.1575 6.44999C69.1575 7.49286 68.2699 8.18286 66.9148 8.18286C65.7167 8.18283 64.7435 7.63376 64.6436 6.5255Z" fill="white"/>
<path d="M70.7167 8.08227V2.59631H71.7898V6.36963H71.8755L74.4037 2.59632H75.4769V8.08228H74.4037V4.28876H74.3228L71.7898 8.0823L70.7167 8.08227Z" fill="white"/>
<path d="M81.3888 3.50767H79.6612V8.08228H78.5774V3.50767H76.8498V2.59638H81.3888V3.50767Z" fill="white"/>
<path d="M87.221 6.60101C87.0734 7.10237 86.7544 7.53596 86.3197 7.82606C85.885 8.11615 85.3622 8.2443 84.8426 8.18813C84.4812 8.19768 84.122 8.12845 83.79 7.98526C83.458 7.84208 83.1612 7.62836 82.9201 7.35894C82.679 7.08953 82.4994 6.77087 82.3937 6.42508C82.2881 6.0793 82.259 5.71467 82.3085 5.35651C82.2603 4.99725 82.2899 4.63184 82.3953 4.28502C82.5007 3.93821 82.6793 3.61807 82.9192 3.3463C83.159 3.07453 83.4545 2.85746 83.7855 2.70979C84.1165 2.56212 84.4754 2.4873 84.8379 2.49039C86.3643 2.49039 87.2864 3.53327 87.2864 5.25596V5.63375H83.4126V5.69443C83.3954 5.89579 83.4206 6.09851 83.4864 6.28957C83.5523 6.48063 83.6574 6.6558 83.795 6.80381C83.9326 6.95182 84.0996 7.06941 84.2854 7.14902C84.4711 7.22862 84.6715 7.26849 84.8736 7.26604C85.1324 7.29699 85.3945 7.25028 85.6267 7.13186C85.8589 7.01343 86.0506 6.82864 86.1775 6.60097L87.221 6.60101ZM83.4125 4.83303H86.1823C86.1959 4.649 86.171 4.46415 86.109 4.29034C86.047 4.11653 85.9493 3.95761 85.8223 3.82378C85.6952 3.68995 85.5416 3.58417 85.3712 3.51323C85.2009 3.4423 85.0176 3.40777 84.8331 3.41187C84.6458 3.40933 84.4599 3.44435 84.2863 3.51487C84.1128 3.5854 83.9552 3.69 83.8227 3.82248C83.6903 3.95497 83.5858 4.11266 83.5153 4.28623C83.4449 4.4598 83.4099 4.64573 83.4125 4.83303Z" fill="white"/>
<path d="M91.8111 2.59631H94.2846C95.3577 2.59631 95.9871 3.14003 95.9871 3.99127C95.9888 4.26138 95.8976 4.52387 95.7289 4.73481C95.5602 4.94576 95.3241 5.09236 95.0603 5.15009V5.23575C95.3807 5.25599 95.681 5.39852 95.8993 5.63388C96.1177 5.86924 96.2372 6.17947 96.2334 6.50047C96.2334 7.45762 95.5136 8.08225 94.3095 8.08225H91.8111V2.59631ZM92.8842 3.42735V4.8479H93.9574C94.6117 4.8479 94.9246 4.59627 94.9246 4.13227C94.9246 3.70456 94.6522 3.42734 94.0776 3.42734L92.8842 3.42735ZM92.8842 5.64387V7.25124H94.168C94.8081 7.25124 95.1507 6.96867 95.1507 6.44994C95.1507 5.90088 94.7629 5.64389 94.0323 5.64389L92.8842 5.64387Z" fill="white"/>
<defs>
<linearGradient id="paint0_linear_3052_4916" x1="13.2721" y1="26.9525" x2="-5.18487" y2="8.12553" gradientUnits="userSpaceOnUse">
<stop stop-color="#00A0FF"/>
<stop offset="0.0066" stop-color="#00A1FF"/>
<stop offset="0.2601" stop-color="#00BEFF"/>
<stop offset="0.5122" stop-color="#00D2FF"/>
<stop offset="0.7604" stop-color="#00DFFF"/>
<stop offset="1" stop-color="#00E3FF"/>
</linearGradient>
<linearGradient id="paint1_linear_3052_4916" x1="26.7758" y1="14.5276" x2="-0.374363" y2="14.5276" gradientUnits="userSpaceOnUse">
<stop stop-color="#FFE000"/>
<stop offset="0.4087" stop-color="#FFBD00"/>
<stop offset="0.7754" stop-color="#FFA500"/>
<stop offset="1" stop-color="#FF9C00"/>
</linearGradient>
<linearGradient id="paint2_linear_3052_4916" x1="16.6691" y1="12.0056" x2="-8.36011" y2="-13.5253" gradientUnits="userSpaceOnUse">
<stop stop-color="#FF3A44"/>
<stop offset="1" stop-color="#C31162"/>
</linearGradient>
<linearGradient id="paint3_linear_3052_4916" x1="-3.00015" y1="36.3369" x2="8.1765" y2="24.9363" gradientUnits="userSpaceOnUse">
<stop stop-color="#32A071"/>
<stop offset="0.0685" stop-color="#2DA771"/>
<stop offset="0.4762" stop-color="#15CF74"/>
<stop offset="0.8009" stop-color="#06E775"/>
<stop offset="1" stop-color="#00F076"/>
</linearGradient>
</defs>
</svg>
