<svg xmlns="http://www.w3.org/2000/svg" version="1.1" viewBox="0 0 200 22">
    <defs>
        <style>
            .st0 {
            fill: #1d1d1b;
            }

            .st0, .st1 {
            fill-rule: evenodd;
            }

            .st1 {
            fill: #fff;
            }

            .st2 {
            fill: #eb6608;
            }
        </style>
    </defs>
    <path class="st1" d="M156.28,3.11h11.94c.56,0,1.02,2.25,1.02,5v4.21c0,2.75-.46,5-1.02,5h-11.94c-.56,0-1.02-2.25-1.02-5v-4.21c0-2.75.46-5,1.02-5Z"></path>
    <path class="st2" d="M140.32,16.25v-3.1h2.76c1.99,0,3.52-.54,4.62-1.63,1.09-1.08,1.64-2.57,1.64-4.45s-.58-3.35-1.75-4.45c-1.16-1.1-2.78-1.66-4.85-1.66h-3.68c-1.15,0-1.91.23-2.28.68-.36.46-.55,1.18-.55,2.17v12.43c0,1.92.68,2.89,2.04,2.89s2.04-.96,2.04-2.89M142.08,9.45h-1.76v-4.71h1.76c1.88,0,2.83.78,2.83,2.34s-.94,2.37-2.83,2.37Z"></path>
    <path class="st2" d="M123.51,11.58l2.01-6.24h.06l1.95,6.24h-4.02ZM125.64.97c-1.42,0-2.45.87-3.09,2.61l-4.62,12.5c-.12.36-.18.75-.18,1.17,0,.56.18,1.01.54,1.36.36.35.82.53,1.38.53.92,0,1.57-.59,1.95-1.77l.72-2.22h6.27l.66,2.07c.4,1.28,1.11,1.92,2.13,1.92.56,0,1.03-.17,1.42-.5.39-.33.59-.77.59-1.33,0-.18-.03-.37-.08-.57-.05-.2-.12-.43-.22-.69l-4.47-12.77c-.56-1.54-1.56-2.31-3-2.31Z"></path>
    <path class="st2" d="M105.46,5.28h.06l3.25,10.43h-6.67l3.37-10.43ZM112.86,15.71l-4.34-12.47c-.26-.75-.65-1.31-1.17-1.7-.52-.38-1.11-.58-1.77-.58-1.39,0-2.41.85-3.03,2.55l-4.49,12.19h-.52c-.57,0-.98.14-1.23.41-.25.27-.38.72-.38,1.35,0,.51.13.91.38,1.21.25.3.66.46,1.23.46h15.92c.57,0,1.01-.15,1.32-.46.31-.3.47-.71.47-1.21s-.16-.95-.47-1.27c-.31-.32-.75-.49-1.32-.49h-.61Z"></path>
    <path class="st2" d="M184.67,13.32l2.34-9.95c.16-.7.49-1.27,1-1.72.51-.45,1.13-.67,1.87-.67.88,0,1.6.28,2.16.84.56.56.9,1.21,1.02,1.95l1.95,12.08c.04.34.07.62.09.82.02.21.03.39.03.53,0,.7-.16,1.2-.47,1.5-.31.3-.75.45-1.33.45-.62,0-1.09-.19-1.41-.56-.32-.37-.55-1.04-.69-2.02l-1.53-9.71h-.06l-2.28,8.96c-.3,1.18-.67,1.95-1.12,2.31-.45.36-.98.54-1.6.54s-1.18-.18-1.63-.54c-.45-.36-.82-1.13-1.12-2.31l-2.31-8.96h-.03l-1.53,9.71c-.16.98-.39,1.65-.69,2.02-.3.37-.77.56-1.41.56-.56,0-1-.15-1.33-.45-.33-.3-.49-.8-.49-1.5,0-.24.06-.69.18-1.35l1.95-12.08c.1-.74.43-1.39.99-1.95.56-.56,1.27-.84,2.13-.84.76,0,1.39.22,1.9.67.51.45.84,1.02,1,1.72l2.34,9.95h.09Z"></path>
    <path class="st2" d="M80.05,8.15v8.16c0,1.9.7,2.85,2.11,2.85s2.11-.95,2.11-2.85V3.71c0-.88-.15-1.56-.46-2.03-.31-.47-.8-.71-1.5-.71-.48,0-.89.12-1.23.35-.34.23-.67.56-1.01.98l-7.86,9.88V3.86c0-1.92-.7-2.88-2.11-2.88s-2.11.96-2.11,2.88v12.91c0,.82.15,1.43.44,1.82.29.39.78.59,1.45.59.46,0,.89-.09,1.28-.29.39-.19.78-.55,1.18-1.07l7.7-9.66Z"></path>
    <path class="st2" d="M59.64,3.89v11.84h-5.08V3.89c0-.97-.14-1.7-.42-2.19-.28-.49-.79-.73-1.52-.73s-1.24.24-1.52.73c-.28.49-.42,1.21-.42,2.19v11.84h-5.08V3.89c0-1.94-.72-2.92-2.17-2.92s-2.17.97-2.17,2.92v12.36c0,1.94.99,2.92,2.98,2.92h16.77c2.01,0,3.01-.97,3.01-2.92V3.89c0-1.94-.73-2.92-2.2-2.92s-2.17.97-2.17,2.92"></path>
    <path class="st2" d="M15.02,19.16c1.76,0,3.17-.3,4.24-.89,1.07-.59,1.61-1.27,1.61-2.03,0-.46-.18-.87-.55-1.22-.36-.35-.76-.53-1.19-.53-.49,0-1.05.15-1.67.44-.62.29-1.37.43-2.25.43-1.41,0-2.55-.46-3.41-1.38-.86-.92-1.29-2.19-1.29-3.81s.42-2.98,1.27-3.95c.85-.97,1.94-1.46,3.29-1.46.79,0,1.5.12,2.12.35.62.23,1.17.35,1.64.35s.89-.18,1.25-.53c.36-.35.55-.76.55-1.22,0-.36-.14-.71-.42-1.04-.28-.33-.66-.62-1.16-.87-.49-.25-1.08-.46-1.77-.62-.69-.16-1.44-.24-2.25-.24-1.29,0-2.48.22-3.58.65-1.1.43-2.06,1.04-2.88,1.83-.81.79-1.46,1.75-1.93,2.88-.47,1.13-.71,2.39-.71,3.77s.22,2.66.66,3.78c.44,1.12,1.06,2.07,1.86,2.85.8.78,1.76,1.38,2.88,1.8,1.11.42,2.34.63,3.66.63"></path>
    <path class="st0" d="M159.45.97h5.38c3.52,0,6.4,2.88,6.4,6.4v5.38c0,3.52-2.88,6.4-6.4,6.4h-5.38c-3.52,0-6.4-2.88-6.4-6.4v-5.38c0-3.52,2.88-6.4,6.4-6.4M160.3,3.83h3.68c2.41,0,4.38,1.97,4.38,4.38v3.68c0,2.41-1.97,4.38-4.38,4.38h-3.68c-2.41,0-4.38-1.97-4.38-4.38v-3.68c0-2.41,1.97-4.38,4.38-4.38Z"></path>
    <path class="st0" d="M162.14,6.26c2.1,0,3.8,1.7,3.8,3.8s-1.7,3.8-3.8,3.8-3.8-1.7-3.8-3.8,1.7-3.8,3.8-3.8"></path>
    <path class="st2" d="M28.97,21.4c.44,0,.83-.08,1.18-.24.35-.16.69-.6,1.01-1.33l7.04-15.78c.11-.23.19-.46.23-.68.04-.23.07-.44.07-.63,0-.55-.17-.98-.51-1.3-.34-.31-.85-.47-1.52-.47-.57,0-1,.14-1.31.41-.31.28-.6.74-.88,1.38l-3.47,8.05h-.1l-3.8-8.19c-.28-.59-.57-1.01-.85-1.27-.28-.26-.68-.39-1.18-.39-.63,0-1.14.18-1.52.54-.38.36-.57.82-.57,1.37,0,.38.09.74.26,1.08l5.46,11.79-1.24,2.71c-.17.36-.26.73-.26,1.11,0,.55.16.99.49,1.33.33.33.82.5,1.47.5"></path>
</svg>