<svg width="24" height="24" viewBox="0 0 24 24" fill="none" xmlns="http://www.w3.org/2000/svg">
<path d="M12.7071 22.2929C12.3166 22.6834 11.6834 22.6834 11.2929 22.2929L6.06246 17.0624C4.88814 15.8881 4.08842 14.3919 3.76443 12.7631C3.44044 11.1342 3.60673 9.44591 4.24228 7.91158C4.87783 6.37725 5.95408 5.06583 7.33494 4.14317C8.71581 3.22051 10.3393 2.72804 12 2.72804C13.6608 2.72804 15.2842 3.22051 16.6651 4.14317C18.0459 5.06583 19.1222 6.37725 19.7577 7.91158C20.3933 9.44591 20.5596 11.1342 20.2356 12.7631C19.9116 14.3919 19.1119 15.8881 17.9376 17.0624L12.7071 22.2929ZM16.6183 15.7432C17.5316 14.8298 18.1536 13.6661 18.4055 12.3992C18.6574 11.1324 18.5281 9.81926 18.0337 8.62593C17.5394 7.43259 16.7023 6.41264 15.6283 5.69504C14.5543 4.97744 13.2917 4.59442 12 4.59442C10.7083 4.59442 9.44568 4.97744 8.37169 5.69504C7.29769 6.41264 6.46061 7.43259 5.96628 8.62593C5.47195 9.81926 5.34257 11.1324 5.59452 12.3992C5.84646 13.6661 6.4684 14.8298 7.38171 15.7432L12 20.3615L16.6183 15.7432ZM12 12.9909C11.5051 12.9909 11.0305 12.7943 10.6806 12.4443C10.3306 12.0944 10.134 11.6198 10.134 11.1249C10.134 10.63 10.3306 10.1554 10.6806 9.80544C11.0305 9.4555 11.5051 9.25891 12 9.25891C12.4949 9.25891 12.9695 9.4555 13.3195 9.80544C13.6694 10.1554 13.866 10.63 13.866 11.1249C13.866 11.6198 13.6694 12.0944 13.3195 12.4443C12.9695 12.7943 12.4949 12.9909 12 12.9909Z" fill="#191C22"/>
</svg>
