<?xml version="1.0" encoding="UTF-8"?>
<svg id="_Слой_1" data-name="Слой_1" xmlns="http://www.w3.org/2000/svg" version="1.1" viewBox="0 0 32 32">
  <!-- Generator: Adobe Illustrator 30.2.1, SVG Export Plug-In . SVG Version: 2.1.1 Build 1)  -->
  <defs>
    <style>
      .st0 {
        fill: #fff;
      }

      .st1 {
        fill: #727281;
      }
    </style>
  </defs>
  <rect class="st1" y="0" width="32" height="32" rx="8" ry="8"/>
  <path class="st0" d="M15.68,6.28c-5.52.29-9.16,4.62-8.93,10.08.1,2.39,1.06,4.44,1.29,6.71.06.59-.11,1.31.57,1.57.83.31,2.11-.21,2.81-.7.24-.16.47-.35.64-.58.72.48,1.41.94,2.27,1.15,3.79.91,7.93-1.17,9.78-4.51,3.47-6.27-1.22-14.09-8.42-13.72h0ZM13.54,19.36c-.3.23-.59.55-.92.73-.48.26-.63-.01-.81-.43-.57-1.35-.63-3.64-.3-5.05.44-1.92,1.93-3.61,3.97-3.79,2.06-.18,3.98.87,4.84,2.76,1.92,4.21-2.99,8.37-6.78,5.78h0Z"/>
</svg>