<svg width="12" height="12" viewBox="0 0 12 12" fill="none" xmlns="http://www.w3.org/2000/svg">
<path d="M0.60742 4.78322C2.00476 7.82661 4.49117 10.2463 7.58243 11.558L8.07796 11.7788C9.21165 12.2839 10.5444 11.9002 11.2358 10.8695L11.8834 9.90434C12.0939 9.59054 12.0298 9.16788 11.7357 8.93061L9.53961 7.15893C9.21705 6.89871 8.74273 6.95932 8.49597 7.29229L7.8166 8.20902C6.07334 7.3491 4.65802 5.93379 3.79811 4.19053L4.71483 3.51116C5.0478 3.2644 5.10842 2.79008 4.84819 2.46752L3.07645 0.271361C2.83923 -0.0226916 2.41668 -0.0868328 2.10288 0.123577L1.13104 0.775216C0.0939381 1.47061 -0.287685 2.81433 0.229087 3.95103L0.606851 4.78198L0.60742 4.78322Z" fill="#7E8593"/>
</svg>
