<svg viewBox="0 0 18 18" fill="none" xmlns="http://www.w3.org/2000/svg">
    <path d="M14.2049 12.7518L17.3633 15.8606C17.7133 16.2051 17.7133 16.7696 17.3633 17.1142C17.021 17.4512 16.4714 17.4512 16.1291 17.1141L12.952 13.9853C11.5402 15.0996 9.78419 15.7056 7.9748 15.7031C3.57271 15.7031 0 12.1856 0 7.85153C0 3.51748 3.57271 0 7.9748 0C12.3769 0 15.9496 3.51748 15.9496 7.85153C15.9522 9.63295 15.3366 11.3618 14.2049 12.7518ZM12.4274 12.1044C13.5519 10.9659 14.18 9.43966 14.1774 7.85153C14.1774 4.47712 11.4013 1.74478 7.9748 1.74478C4.54741 1.74478 1.77218 4.47712 1.77218 7.85153C1.77218 11.2251 4.54741 13.9583 7.9748 13.9583C9.58786 13.9608 11.138 13.3425 12.2945 12.2353L12.4274 12.1044Z"
          fill="#191C23"></path>
</svg>