<svg width="32" height="32" viewBox="0 0 32 32" fill="none" xmlns="http://www.w3.org/2000/svg">
<rect width="32" height="32" rx="8" fill="#727281"/>
<path d="M5.55623 15.8402C7.42661 14.8099 9.51448 13.9501 11.4653 13.0858C14.8214 11.6702 18.1909 10.2791 21.5943 8.98406C22.2565 8.7634 23.4464 8.5476 23.563 9.52893C23.4991 10.918 23.2364 12.2989 23.0561 13.6799C22.5986 16.7167 22.0697 19.7431 21.5541 22.7699C21.3764 23.7781 20.1134 24.3 19.3053 23.6548C17.3631 22.3429 15.4061 21.0439 13.4887 19.7016C12.8607 19.0634 13.4431 18.1469 14.004 17.6912C15.6036 16.1148 17.3 14.7755 18.816 13.1176C19.2249 12.1301 18.0167 12.9623 17.6181 13.2173C15.4283 14.7264 13.292 16.3276 10.9832 17.6539C9.80388 18.3031 8.42935 17.7483 7.25055 17.386C6.1936 16.9484 4.64479 16.5075 5.55612 15.8403L5.55623 15.8402Z" fill="#FDFDFE"/>
</svg>
