<svg width="20" height="20" viewBox="0 0 20 20" fill="none"
     xmlns="http://www.w3.org/2000/svg">
    <path class="header_iconProfile__bg5d8" fill-rule="evenodd" clip-rule="evenodd"
          d="M10 9.16667C11.6108 9.16667 12.9167 7.86083 12.9167 6.25C12.9167 4.63917 11.6108 3.33333 10 3.33333C8.38917 3.33333 7.08333 4.63917 7.08333 6.25C7.08333 7.86083 8.38917 9.16667 10 9.16667ZM10 10.8333C12.5313 10.8333 14.5833 8.7813 14.5833 6.25C14.5833 3.71869 12.5313 1.66667 10 1.66667C7.4687 1.66667 5.41667 3.71869 5.41667 6.25C5.41667 8.7813 7.4687 10.8333 10 10.8333Z"
          fill="#191C22"></path>
    <path class="header_iconProfile__bg5d8" fill-rule="evenodd" clip-rule="evenodd"
          d="M10 13.3333C7.7518 13.3333 5.88167 14.952 5.49147 17.0875C5.40875 17.5403 5.04357 17.9167 4.58333 17.9167C4.1231 17.9167 3.74417 17.5415 3.80481 17.0853C4.21135 14.0266 6.83008 11.6667 10 11.6667C13.1699 11.6667 15.7887 14.0266 16.1952 17.0853C16.2558 17.5415 15.8769 17.9167 15.4167 17.9167C14.9564 17.9167 14.5913 17.5403 14.5085 17.0875C14.1183 14.952 12.2482 13.3333 10 13.3333Z"
          fill="#191C22"></path>
</svg>