<svg width="32" height="32" viewBox="0 0 32 32" fill="none" xmlns="http://www.w3.org/2000/svg">
<rect width="32" height="32" rx="8" fill="#727281"/>
<path fill-rule="evenodd" clip-rule="evenodd" d="M25.4305 11.9772C25.5847 11.5388 25.4305 11.2199 24.7476 11.2199H22.4786C21.9059 11.2199 21.6416 11.4989 21.4874 11.7979C21.4874 11.7979 20.3198 14.3488 18.6897 16.0028C18.161 16.4811 17.9187 16.6406 17.6324 16.6406C17.4781 16.6406 17.2799 16.4811 17.2799 16.0427V11.9573C17.2799 11.4391 17.1037 11.2 16.619 11.2H13.0504C12.6979 11.2 12.4776 11.4391 12.4776 11.6783C12.4776 12.1765 13.2927 12.2961 13.3808 13.6911V16.7203C13.3808 17.378 13.2486 17.4975 12.9622 17.4975C12.1912 17.4975 10.3188 14.9267 9.19534 11.9972C8.97501 11.4192 8.75475 11.2 8.18203 11.2H5.89099C5.23014 11.2 5.12 11.479 5.12 11.778C5.12 12.316 5.89099 15.0263 8.71066 18.6135C10.5832 21.0648 13.2486 22.3801 15.6498 22.3801C17.1037 22.3801 17.2799 22.0811 17.2799 21.5829V19.7296C17.2799 19.1317 17.412 19.0321 17.8747 19.0321C18.2051 19.0321 18.7999 19.1914 20.1436 20.3672C21.6856 21.7623 21.9499 22.4 22.8091 22.4H25.0781C25.7389 22.4 26.0473 22.1011 25.8711 21.5231C25.6728 20.9452 24.9239 20.1082 23.9546 19.1117C23.4259 18.5538 22.6328 17.936 22.3905 17.637C22.0601 17.2385 22.1482 17.079 22.3905 16.7203C22.3685 16.7203 25.1441 13.173 25.4305 11.9772Z" fill="white"/>
</svg>
